<svg xmlns="http://www.w3.org/2000/svg" width="185.354" height="127.516" viewBox="0 0 185.354 127.516"><g transform="translate(-466.323 -263.484)"><text transform="translate(550.677 322.688)" fill="#fbf9fa" font-size="28" font-family="SegoeScript, Segoe Script"><tspan x="0" y="0">CLUBS</tspan></text><text transform="translate(466.542 377)" fill="#fbf9fa" font-size="57" font-family="SegoeUI, Segoe UI"><tspan x="0" y="0">ENSIAS</tspan></text><g transform="translate(466.5 263.5)"><g fill="#f10" opacity="0.72"><path d="M 83.53400421142578 59.24353408813477 L 0.965989887714386 59.24353408813477 L 42.24999618530273 0.865963876247406 L 83.53400421142578 59.24353408813477 Z" stroke="none"/><path d="M 42.24999618530273 1.73193359375 L 1.931983947753906 58.74353408813477 L 82.56800842285156 58.74353408813477 L 42.24999618530273 1.73193359375 M 42.24999618530273 3.814697265625e-06 L 84.5 59.74353408813477 L -7.62939453125e-06 59.74353408813477 L 42.24999618530273 3.814697265625e-06 Z" stroke="none" fill="#fff"/></g><path d="M1290.481,222s-.612,28.449-3.266,31.951c-2.143,2.954-38.882,27.683-38.882,27.683s37.76-23.471,42.148-23.69c5-.328,41.791,23.69,41.791,23.69s-36.586-24.291-38.729-27.683S1290.481,222,1290.481,222Z" transform="translate(-1248.231 -222)" fill="#fff" stroke="rgba(112,112,112,0)" stroke-width="1"/></g><line x2="184" transform="translate(466.5 382)" fill="none" stroke="#fff" stroke-width="2"/><line x2="184" transform="translate(466.5 328.5)" fill="none" stroke="#fff" stroke-width="2"/></g></svg>